<svg width="330" height="293" viewBox="0 0 330 293" fill="none" xmlns="http://www.w3.org/2000/svg">
<g id="tee-logo">
<rect id="Rectangle 4" x="199.909" y="67.5575" width="46" height="75" transform="rotate(-60 199.909 67.5575)" fill="#CCA43B"/>
<rect id="Rectangle 5" x="55.8098" y="72.4945" width="46" height="75" transform="rotate(30 55.8098 72.4945)" fill="#CCA43B"/>
<path id="Subtract" fill-rule="evenodd" clip-rule="evenodd" d="M143.696 64.4746C164.501 58.8999 179.687 48.11 177.614 40.3748C177.571 40.2131 177.52 40.0541 177.463 39.8977L222.883 27.7273L278.271 234.435L111.165 279.211L55.7781 72.503L102.164 60.0738C102.193 60.238 102.229 60.401 102.272 60.5627C104.345 68.2979 122.891 70.0494 143.696 64.4746Z" fill="#CCA43B"/>
<g id="horns">
<rect id="Rectangle 6" x="137.116" y="124.029" width="52" height="46" transform="rotate(-4.54557 137.116 124.029)" fill="#242F40"/>
<rect id="Rectangle 7" x="175.847" y="93.8644" width="11" height="27" transform="rotate(-4.54557 175.847 93.8644)" fill="#242F40"/>
<rect id="Rectangle 11" x="132.747" y="157.401" width="16.9913" height="14.7784" transform="rotate(-32.332 132.747 157.401)" fill="#242F40"/>
<rect id="Rectangle 9" x="163.873" y="119.895" width="12" height="2" transform="rotate(-4.54557 163.873 119.895)" fill="#242F40"/>
<rect id="Rectangle 10" x="149.917" y="121.005" width="12" height="2" transform="rotate(-4.54557 149.917 121.005)" fill="#242F40"/>
<rect id="Rectangle 8" x="134.976" y="97.1137" width="11" height="27" transform="rotate(-4.54557 134.976 97.1137)" fill="#242F40"/>
</g>
</g>
</svg>
